<svg width="23" height="23" viewBox="0 0 23 23" fill="none" xmlns="http://www.w3.org/2000/svg">
<path d="M21.0964 8.41964C21.0387 8.24983 20.9326 8.10061 20.7911 7.99043C20.6496 7.88024 20.479 7.81389 20.3002 7.79959L15.0711 7.38408L12.8083 2.37506C12.7362 2.21373 12.619 2.07671 12.4708 1.98052C12.3225 1.88434 12.1496 1.8331 11.973 1.83301C11.7963 1.83291 11.6233 1.88395 11.475 1.97998C11.3267 2.076 11.2093 2.2129 11.1371 2.37415L8.87424 7.38408L3.64509 7.79959C3.4694 7.8135 3.30144 7.87774 3.1613 7.98462C3.02116 8.0915 2.91478 8.23648 2.85489 8.40224C2.79499 8.56799 2.78412 8.74749 2.82356 8.91926C2.86301 9.09103 2.95111 9.2478 3.07732 9.37081L6.94163 13.1379L5.57495 19.0559C5.53345 19.235 5.54675 19.4225 5.61313 19.594C5.6795 19.7655 5.79588 19.913 5.94717 20.0175C6.09845 20.1221 6.27766 20.1787 6.46153 20.1801C6.64541 20.1815 6.82546 20.1276 6.97832 20.0254L11.9727 16.6958L16.967 20.0254C17.1232 20.1291 17.3075 20.1825 17.495 20.1784C17.6825 20.1743 17.8642 20.1129 18.0158 20.0024C18.1673 19.8919 18.2814 19.7377 18.3426 19.5604C18.4039 19.3832 18.4094 19.1914 18.3584 19.0109L16.6808 13.1406L20.8414 9.39649C21.1138 9.15067 21.2138 8.76727 21.0964 8.41964Z" fill="#B3E3FF"/>
</svg>
